<?xml version="1.0" encoding="UTF-8" standalone="no"?>
<svg
   xmlns:dc="http://purl.org/dc/elements/1.1/"
   xmlns:cc="http://creativecommons.org/ns#"
   xmlns:rdf="http://www.w3.org/1999/02/22-rdf-syntax-ns#"
   xmlns:svg="http://www.w3.org/2000/svg"
   xmlns="http://www.w3.org/2000/svg"
   viewBox="0 0 1149.3333 313.12799"
   height="313.12799"
   width="1149.3333"
   xml:space="preserve"
   id="svg2"
   version="1.1"><metadata
     id="metadata8"><rdf:RDF><cc:Work
         rdf:about=""><dc:format>image/svg+xml</dc:format><dc:type
           rdf:resource="http://purl.org/dc/dcmitype/StillImage" /></cc:Work></rdf:RDF></metadata><defs
     id="defs6"><clipPath
       id="clipPath18"
       clipPathUnits="userSpaceOnUse"><path
         id="path16"
         d="M 0,234.846 H 862 V 0 H 0 Z" /></clipPath></defs><g
     transform="matrix(1.3333333,0,0,-1.3333333,0,313.128)"
     id="g10"><g
       id="g12"><g
         clip-path="url(#clipPath18)"
         id="g14"><g
           transform="translate(300.9915,91.6152)"
           id="g20"><path
             id="path22"
             style="fill:#ffffff;fill-opacity:1;fill-rule:nonzero;stroke:none"
             d="m 0,0 c -5.827,-22.63 -21.322,-35.839 -44.596,-37.655 -6.216,-0.485 -12.496,-0.076 -18.736,-0.337 -3.007,-0.126 -3.744,0.991 -3.739,3.843 0.077,39.95 0.056,79.901 0.042,119.851 -0.001,2.103 -0.165,3.954 2.968,3.887 9.571,-0.205 19.177,0.489 28.595,-2.081 C -13.744,81.581 -2.928,66.253 1.27,45.169 2.583,38.575 2.975,31.899 2.781,25.188 3.016,16.664 2.128,8.263 0,0 m 60.281,84.401 c -16.434,33.045 -44.773,49.665 -80.073,56.062 -23.494,4.258 -47.23,2.021 -67.426,2.645 -21.303,0 -39.173,-0.079 -57.04,0.062 -3.839,0.031 -4.997,-0.398 -3.481,-4.696 26.525,-75.197 52.909,-150.444 79.171,-225.734 1.198,-3.436 2.801,-4.335 6.184,-4.308 11.614,0.094 23.229,-0.006 34.771,1.557 22.722,3.076 43.836,10.244 61.782,25.026 21.756,17.919 33.233,41.496 36.997,69.041 3.792,27.749 1.755,54.93 -10.885,80.345" /></g><g
           transform="translate(90.4766,92.9602)"
           id="g24"><path
             id="path26"
             style="fill:#ffffff;fill-opacity:1;fill-rule:nonzero;stroke:none"
             d="M 0,0 C 7.192,24.119 14.314,48.005 21.967,73.673 29.667,47.995 36.801,24.206 44.06,0 Z m 133.947,-89.023 c -26.465,75.471 -52.975,150.926 -79.332,226.434 -1.298,3.718 -3.223,4.462 -6.779,4.428 -17.201,-0.168 -34.407,-0.245 -51.605,0.045 -4.205,0.071 -5.65,-1.61 -6.896,-5.175 -26.181,-74.863 -52.473,-149.687 -78.674,-224.544 -0.514,-1.466 -1.878,-3.026 -0.619,-5.005 19.431,0 38.862,0.076 58.291,-0.073 3.303,-0.025 4.557,1.056 5.407,4.235 2.763,10.329 6.014,20.526 8.92,30.818 0.935,3.315 2.11,5.126 6.23,5.086 22.115,-0.216 44.236,-0.178 66.349,0.128 4.108,0.057 5.334,-1.646 6.282,-5.015 2.895,-10.296 6.109,-20.502 8.963,-30.808 0.813,-2.937 1.744,-4.488 5.25,-4.456 19.425,0.179 38.853,0.086 59.159,0.086 -0.414,1.693 -0.585,2.788 -0.946,3.816" /></g><g
           transform="translate(141.1124,27.3763)"
           id="g28"><path
             id="path30"
             style="fill:#ffff00;fill-opacity:1;fill-rule:nonzero;stroke:none"
             d="m 0,0 -26.732,-26.732 c -0.859,-0.859 -2.252,-0.859 -3.111,0 L -56.575,0 c -1.386,1.386 -0.404,3.755 1.556,3.755 H -1.555 C 0.404,3.755 1.386,1.386 0,0" /></g><g
           transform="translate(403.423,177.1124)"
           id="g32"><path
             id="path34"
             style="fill:#ffffff;fill-opacity:1;fill-rule:nonzero;stroke:none"
             d="M 0,0 H 5.799 V -56.619 H 87.488 V 0 h 5.798 v -119.378 h -5.798 v 57.472 H 5.799 v -57.472 H 0 Z" /></g><g
           transform="translate(403.423,177.1124)"
           id="g36"><path
             id="path38"
             style="fill:none;stroke:#ffffff;stroke-width:10;stroke-linecap:butt;stroke-linejoin:miter;stroke-miterlimit:10;stroke-dasharray:none;stroke-opacity:1"
             d="M 0,0 H 5.799 V -56.619 H 87.488 V 0 h 5.798 v -119.378 h -5.798 v 57.472 H 5.799 v -57.472 H 0 Z" /></g><g
           transform="translate(532.1829,177.1124)"
           id="g40"><path
             id="path42"
             style="fill:#ffffff;fill-opacity:1;fill-rule:nonzero;stroke:none"
             d="M 0,0 H 84.078 V -5.287 H 5.799 v -51.332 h 70.775 v -5.287 H 5.799 v -52.186 H 84.93 v -5.286 H 0 Z" /></g><g
           transform="translate(532.1829,177.1124)"
           id="g44"><path
             id="path46"
             style="fill:none;stroke:#ffffff;stroke-width:10;stroke-linecap:butt;stroke-linejoin:miter;stroke-miterlimit:10;stroke-dasharray:none;stroke-opacity:1"
             d="M 0,0 H 84.078 V -5.287 H 5.799 v -51.332 h 70.775 v -5.287 H 5.799 v -52.186 H 84.93 v -5.286 H 0 Z" /></g><g
           transform="translate(693.3469,114.0125)"
           id="g48"><path
             id="path50"
             style="fill:#ffffff;fill-opacity:1;fill-rule:nonzero;stroke:none"
             d="m 0,0 c 24.557,0 38.542,11.938 38.542,28.821 v 0.342 c 0,17.906 -13.813,28.65 -37.348,28.65 H -41.952 V 0 Z M -47.752,63.1 H 1.535 c 15.177,0 26.774,-4.263 34.109,-11.426 5.456,-5.628 8.697,-13.302 8.697,-22.17 V 29.163 C 44.341,9.039 28.822,-2.728 6.821,-4.604 L 46.558,-56.278 H 39.224 L 0.341,-5.287 h -42.293 v -50.991 h -5.8 z" /></g><g
           transform="translate(693.3469,114.0125)"
           id="g52"><path
             id="path54"
             style="fill:none;stroke:#ffffff;stroke-width:10;stroke-linecap:butt;stroke-linejoin:miter;stroke-miterlimit:10;stroke-dasharray:none;stroke-opacity:1"
             d="m 0,0 c 24.557,0 38.542,11.938 38.542,28.821 v 0.342 c 0,17.906 -13.813,28.65 -37.348,28.65 H -41.952 V 0 Z M -47.752,63.1 H 1.535 c 15.177,0 26.774,-4.263 34.109,-11.426 5.456,-5.628 8.697,-13.302 8.697,-22.17 V 29.163 C 44.341,9.039 28.822,-2.728 6.821,-4.604 L 46.558,-56.278 H 39.224 L 0.341,-5.287 h -42.293 v -50.991 h -5.8 z" /></g><g
           transform="translate(769.0701,177.1124)"
           id="g56"><path
             id="path58"
             style="fill:#ffffff;fill-opacity:1;fill-rule:nonzero;stroke:none"
             d="M 0,0 H 84.078 V -5.287 H 5.799 v -51.332 h 70.775 v -5.287 H 5.799 v -52.186 H 84.93 v -5.286 H 0 Z" /></g><g
           transform="translate(769.0701,177.1124)"
           id="g60"><path
             id="path62"
             style="fill:none;stroke:#ffffff;stroke-width:10;stroke-linecap:butt;stroke-linejoin:miter;stroke-miterlimit:10;stroke-dasharray:none;stroke-opacity:1"
             d="M 0,0 H 84.078 V -5.287 H 5.799 v -51.332 h 70.775 v -5.287 H 5.799 v -52.186 H 84.93 v -5.286 H 0 Z" /></g></g></g></g></svg>